<?xml version="1.0" encoding="iso-8859-1"?>
<!-- Generator: Adobe Illustrator 19.0.0, SVG Export Plug-In . SVG Version: 6.00 Build 0)  -->
<svg version="1.1" id="Layer_1" xmlns="http://www.w3.org/2000/svg" xmlns:xlink="http://www.w3.org/1999/xlink" x="0px" y="0px"
	 viewBox="0 0 473.935 473.935" style="enable-background:new 0 0 473.935 473.935;" xml:space="preserve">
<circle style="fill:#344E5D;" cx="236.967" cy="236.967" r="236.967"/>
<path style="fill:#717171;" d="M117.473,249.738c0,37.953,17.714,71.738,45.302,93.62c-13.594-28.333-21.216-60.089-21.216-93.62
	c0-33.53,7.622-65.283,21.216-93.623C135.191,178.001,117.473,211.793,117.473,249.738z"/>
<radialGradient id="SVGID_1_" cx="16.6847" cy="524.9733" r="30.3637" gradientTransform="matrix(3.7418 0 0 -3.7418 186.5668 2214.0767)" gradientUnits="userSpaceOnUse">
	<stop  offset="0.818" style="stop-color:#D8D5DB"/>
	<stop  offset="1" style="stop-color:#D8D5DB"/>
</radialGradient>
<path style="fill:url(#SVGID_1_);" d="M162.779,343.358c20.382,16.172,46.136,25.856,74.177,25.856
	c65.986,0,119.475-53.489,119.475-119.475c0-65.983-53.489-119.475-119.475-119.475c-28.041,0-53.796,9.684-74.177,25.852
	c-13.594,28.34-21.216,60.093-21.216,93.623C141.563,283.268,149.185,315.025,162.779,343.358z"/>
<g>
</g>
<g>
</g>
<g>
</g>
<g>
</g>
<g>
</g>
<g>
</g>
<g>
</g>
<g>
</g>
<g>
</g>
<g>
</g>
<g>
</g>
<g>
</g>
<g>
</g>
<g>
</g>
<g>
</g>
</svg>
