<?xml version="1.0" encoding="iso-8859-1"?>
<!-- Generator: Adobe Illustrator 19.0.0, SVG Export Plug-In . SVG Version: 6.00 Build 0)  -->
<svg version="1.1" id="Layer_1" xmlns="http://www.w3.org/2000/svg" xmlns:xlink="http://www.w3.org/1999/xlink" x="0px" y="0px"
	 viewBox="0 0 473.935 473.935" style="enable-background:new 0 0 473.935 473.935;" xml:space="preserve">
<circle style="fill:#344E5D;" cx="236.967" cy="236.967" r="236.967"/>
<radialGradient id="SVGID_1_" cx="13.4697" cy="528.3893" r="31.9285" gradientTransform="matrix(3.7418 0 0 -3.7418 186.5668 2214.0767)" gradientUnits="userSpaceOnUse">
	<stop  offset="0.818" style="stop-color:#D8D5DB"/>
	<stop  offset="1" style="stop-color:#D8D5DB"/>
</radialGradient>
<path style="fill:url(#SVGID_1_);" d="M356.428,236.952c0-54.293-36.232-100.1-85.829-114.637
	c20.774,33.261,32.819,72.535,32.819,114.637c0,42.11-12.045,81.384-32.819,114.645C320.2,337.056,356.428,291.25,356.428,236.952z"
	/>
<path style="fill:#717171;" d="M270.602,122.315c-10.679-3.128-21.961-4.838-33.646-4.838c-65.986,0-119.479,53.496-119.479,119.475
	c0,65.986,53.493,119.483,119.479,119.483c11.686,0,22.971-1.71,33.646-4.838c20.774-33.261,32.819-72.535,32.819-114.645
	C303.418,194.85,291.373,155.572,270.602,122.315z"/>
<g>
</g>
<g>
</g>
<g>
</g>
<g>
</g>
<g>
</g>
<g>
</g>
<g>
</g>
<g>
</g>
<g>
</g>
<g>
</g>
<g>
</g>
<g>
</g>
<g>
</g>
<g>
</g>
<g>
</g>
</svg>
